<?xml version="1.0" encoding="UTF-8"?>
<svg xmlns="http://www.w3.org/2000/svg" viewBox="0 0 600 600" width="600" height="600">
<path d="M3.37 354.6C3.37 318.2 3.37 281.8 3.37 245.4C3.67 244.52 4.75 244.31 4.96 243.66C5.3 242.65 4.68 241.52 5.51 240.61C5.76 240.32 6.2 240.24 6.5 240C7.21 239.44 7.38 238.27 8.34 238.04C9.03 237.87 9.77 238.13 10.46 237.96C11.56 237.7 11.55 236.12 12.94 235.84C14.5 235.53 16.68 235.8 18.3 235.8C21.97 235.8 25.63 235.8 29.3 235.8C52.83 235.8 76.37 235.8 99.9 235.8C172.37 235.8 244.83 235.8 317.3 235.8C337.7 235.8 358.1 235.8 378.5 235.8C384.23 235.8 389.97 235.8 395.7 235.8C397.3 235.8 398.9 235.8 400.5 235.8C401.29 235.8 402.19 235.94 402.9 235.6C403.79 234.46 403.4 230.29 403.4 228.7C403.4 222.57 403.4 216.43 403.4 210.3C403.4 190.7 403.4 171.1 403.4 151.5C403.4 146.7 403.4 141.9 403.4 137.1C403.4 135.31 403.04 131.9 403.64 130.34C403.91 129.62 404.54 129.45 405.1 129C405.55 128.64 405.64 128.11 406 127.7C406.3 127.37 406.76 127.27 407.1 127C407.62 126.58 407.75 125.93 408.21 125.51C408.48 125.26 408.89 125.11 409.19 124.89C409.73 124.5 409.88 123.87 410.31 123.41C410.65 123.03 411.22 122.85 411.6 122.5C412 122.13 412.09 121.54 412.53 121.23C413.7 120.4 416.65 120.8 418.1 120.8C418.79 120.8 419.44 120.72 420.07 121.03C420.82 121.41 420.96 122.46 421.74 122.76C422.84 123.19 424.17 122.65 425 123.7C425.21 123.97 425.3 124.32 425.54 124.56C426.04 125.07 426.74 125.32 427.2 125.9C427.56 126.35 427.84 126.83 428.3 127.2C428.6 127.44 428.95 127.58 429.2 127.9C429.43 128.19 429.58 128.6 429.84 128.86C430.31 129.34 430.97 129.55 431.4 130.1C432.56 131.55 433.98 132.71 435.3 134C435.75 134.44 436 135.03 436.44 135.46C436.68 135.7 437.03 135.79 437.3 136C437.81 136.41 438 137.02 438.44 137.46C438.68 137.7 439.03 137.79 439.3 138C439.86 138.44 440.07 139.09 440.54 139.56C440.8 139.82 441.21 139.97 441.5 140.2C441.99 140.59 442.13 141.15 442.54 141.56C442.87 141.89 443.34 142.11 443.7 142.4C444.09 142.71 444.3 143.12 444.6 143.5C444.97 143.96 445.45 144.24 445.9 144.6C446.22 144.85 446.36 145.2 446.6 145.5C447 146 447.54 146.29 448 146.7C448.57 147.21 448.89 147.91 449.5 148.4C449.88 148.7 450.29 148.91 450.6 149.3C450.87 149.64 451.1 150.19 451.44 150.46C451.89 150.83 452.4 150.99 452.8 151.5C453.06 151.83 453.22 152.29 453.54 152.56C453.94 152.92 454.44 153.04 454.8 153.5C455.03 153.79 455.18 154.2 455.44 154.46C455.94 154.97 456.66 155.19 457.09 155.81C457.23 156 457.28 156.28 457.44 156.46C457.78 156.85 458.33 157.03 458.7 157.4C459.03 157.72 459.15 158.13 459.44 158.46C459.77 158.84 460.31 159.09 460.7 159.4C461.09 159.71 461.3 160.12 461.6 160.5C461.97 160.96 462.45 161.24 462.9 161.6C463.29 161.91 463.5 162.32 463.8 162.7C464.17 163.16 464.65 163.44 465.1 163.8C465.42 164.05 465.56 164.4 465.8 164.7C466.31 165.35 467.09 165.66 467.6 166.3C467.89 166.66 468.11 167.13 468.44 167.46C468.68 167.7 469.03 167.79 469.3 168C469.81 168.41 470 169.02 470.44 169.46C470.77 169.8 471.25 169.94 471.6 170.3C471.97 170.68 472.16 171.2 472.54 171.56C472.98 172 473.59 172.19 474 172.7C474.21 172.97 474.3 173.32 474.54 173.56C474.87 173.89 475.34 174.11 475.7 174.4C476.09 174.71 476.3 175.12 476.6 175.5C476.91 175.89 477.32 176.1 477.7 176.4C478.34 176.91 478.65 177.69 479.3 178.2C480.38 179.06 481.94 180.62 482.8 181.7C483.31 182.35 484.09 182.66 484.6 183.3C484.89 183.66 485.11 184.13 485.44 184.46C485.85 184.87 486.41 185.01 486.8 185.5C487.06 185.83 487.22 186.29 487.54 186.56C488.01 186.98 488.58 187.17 489 187.7C489.21 187.97 489.3 188.32 489.54 188.56C489.98 189 490.59 189.19 491 189.7C491.21 189.97 491.3 190.32 491.54 190.56C492.04 191.07 492.74 191.32 493.2 191.9C493.41 192.17 493.5 192.52 493.74 192.76C494.17 193.19 494.81 193.41 495.2 193.9C495.56 194.35 495.84 194.83 496.3 195.2C496.68 195.5 497.09 195.71 497.4 196.1C497.66 196.43 497.83 196.86 498.14 197.16C498.58 197.6 499.19 197.79 499.6 198.3C499.9 198.67 500.15 199.28 500.54 199.56C500.98 199.87 501.42 200.03 501.8 200.5C502.06 200.83 502.22 201.29 502.54 201.56C502.87 201.85 503.28 201.97 503.6 202.3C503.97 202.68 504.16 203.2 504.54 203.56C504.98 204 505.59 204.19 506 204.7C506.21 204.97 506.3 205.32 506.54 205.56C506.87 205.9 507.36 206.06 507.7 206.4C508.03 206.72 508.15 207.13 508.44 207.46C508.77 207.84 509.31 208.09 509.7 208.4C510.3 208.88 510.63 209.58 511.2 210.1C511.59 210.45 512.06 210.67 512.4 211.1C512.7 211.48 512.91 211.89 513.3 212.2C513.68 212.5 514.09 212.71 514.4 213.1C514.76 213.55 515.04 214.03 515.5 214.4C515.85 214.67 516.19 214.86 516.5 215.2C516.87 215.61 517.12 216.19 517.54 216.56C517.94 216.92 518.44 217.04 518.8 217.5C519.03 217.79 519.18 218.2 519.44 218.46C519.81 218.84 520.33 218.98 520.7 219.4C521.02 219.75 521.2 220.23 521.54 220.56C521.98 221 522.59 221.19 523 221.7C523.21 221.97 523.3 222.32 523.54 222.56C524.04 223.07 524.74 223.32 525.2 223.9C525.84 224.71 526.45 225.08 527.1 225.8C527.7 226.47 528.19 227.03 528.9 227.6C529.29 227.91 529.5 228.32 529.8 228.7C530.17 229.16 530.65 229.44 531.1 229.8C531.54 230.15 531.8 230.7 532.2 231.1C532.64 231.54 533.21 231.8 533.6 232.3C533.91 232.69 534.16 233.23 534.54 233.56C534.94 233.92 535.44 234.04 535.8 234.5C536.06 234.83 536.22 235.29 536.54 235.56C537.01 235.98 537.58 236.17 538 236.7C538.21 236.97 538.3 237.32 538.54 237.56C538.98 238 539.59 238.19 540 238.7C540.21 238.97 540.3 239.32 540.54 239.56C541.04 240.07 541.74 240.32 542.2 240.9C542.41 241.17 542.5 241.52 542.74 241.76C543.07 242.09 543.54 242.31 543.9 242.6C544.22 242.85 544.36 243.2 544.6 243.5C544.97 243.96 545.45 244.24 545.9 244.6C546.29 244.91 546.5 245.32 546.8 245.7C547.17 246.16 547.65 246.44 548.1 246.8C548.67 247.25 548.9 248.03 549.44 248.46C549.64 248.62 549.89 248.65 550.1 248.8C550.69 249.22 550.94 249.97 551.44 250.46C551.68 250.7 552.03 250.79 552.3 251C552.81 251.41 553 252.02 553.44 252.46C553.74 252.77 554.17 252.94 554.5 253.2C554.99 253.59 555.13 254.15 555.54 254.56C555.98 255 556.59 255.19 557 255.7C557.21 255.97 557.3 256.32 557.54 256.56C557.87 256.89 558.34 257.11 558.7 257.4C559.13 257.74 559.35 258.21 559.7 258.6C560.22 259.17 560.92 259.5 561.4 260.1C561.76 260.55 562.04 261.03 562.5 261.4C562.8 261.64 563.15 261.78 563.4 262.1C563.69 262.46 563.91 262.93 564.24 263.26C564.48 263.5 564.83 263.59 565.1 263.8C565.68 264.26 565.93 264.96 566.44 265.46C566.68 265.7 567.03 265.79 567.3 266C567.81 266.41 568 267.02 568.44 267.46C568.68 267.7 569.03 267.79 569.3 268C569.81 268.41 570 269.02 570.44 269.46C570.71 269.74 571.09 269.88 571.39 270.11C571.91 270.48 572.05 271.02 572.44 271.46C572.9 271.99 573.62 272.26 574.1 272.8C574.45 273.19 574.67 273.66 575.1 274C575.48 274.3 575.89 274.51 576.2 274.9C576.46 275.23 576.63 275.66 576.94 275.96C577.38 276.4 577.99 276.59 578.4 277.1C578.66 277.43 578.83 277.86 579.14 278.16C579.37 278.39 579.73 278.52 579.99 278.71C580.61 279.15 580.89 279.92 581.5 280.4C581.88 280.7 582.29 280.91 582.6 281.3C582.91 281.69 583.16 282.23 583.54 282.56C583.94 282.92 584.44 283.04 584.8 283.5C585.03 283.79 585.18 284.2 585.44 284.46C585.74 284.77 586.18 284.89 586.5 285.2C586.92 285.62 587.14 286.17 587.54 286.56C587.98 287 588.59 287.19 589 287.7C589.21 287.97 589.3 288.32 589.54 288.56C589.87 288.89 590.34 289.11 590.7 289.4C591.34 289.91 591.65 290.69 592.3 291.2C592.64 291.47 593.03 291.64 593.29 292.01C593.91 292.87 593.28 293.99 593.83 294.87C594.21 295.47 594.86 295.53 595.29 296.01C595.67 296.42 595.75 297.37 595.8 297.9C595.91 299.06 595.98 302.99 595.37 303.87C594.98 304.42 594.22 304.51 593.83 305.13C593.28 306.01 593.91 307.13 593.29 307.99C592.87 308.59 592.1 308.81 591.64 309.34C591.28 309.74 591.16 310.24 590.7 310.6C590.34 310.89 589.81 311.07 589.51 311.41C589.11 311.85 589 312.4 588.5 312.8C588.21 313.03 587.8 313.18 587.54 313.44C587.13 313.85 586.99 314.41 586.5 314.8C586.21 315.03 585.8 315.18 585.54 315.44C585.06 315.91 584.85 316.57 584.3 317C584.07 317.18 583.75 317.25 583.54 317.44C583.16 317.77 582.91 318.31 582.6 318.7C582.24 319.16 581.74 319.28 581.34 319.64C580.96 319.97 580.71 320.51 580.4 320.9C580.06 321.33 579.51 321.47 579.14 321.84C578.83 322.14 578.66 322.57 578.4 322.9C577.99 323.41 577.38 323.6 576.94 324.04C576.63 324.34 576.46 324.77 576.2 325.1C575.78 325.63 575.09 325.86 574.61 326.31C574.21 326.67 574.15 327.25 573.7 327.6C573.31 327.91 572.77 328.16 572.44 328.54C572.18 328.83 572.09 329.21 571.8 329.5C571.42 329.89 570.91 330.07 570.54 330.44C570.23 330.74 570.06 331.17 569.8 331.5C569.41 331.99 568.85 332.13 568.44 332.54C568 332.98 567.81 333.59 567.3 334C567 334.24 566.57 334.32 566.31 334.61C565.85 335.1 565.66 335.76 565.1 336.2C564.83 336.41 564.48 336.5 564.24 336.74C563.81 337.17 563.59 337.81 563.1 338.2C562.65 338.56 562.17 338.84 561.8 339.3C561.5 339.68 561.29 340.09 560.9 340.4C560.45 340.76 559.97 341.04 559.6 341.5C559.3 341.88 559.09 342.29 558.7 342.6C558.34 342.89 557.81 343.07 557.51 343.41C557.28 343.65 557.21 344.04 557 344.3C556.57 344.84 555.88 345.04 555.44 345.54C555.25 345.75 555.18 346.07 555 346.3C554.59 346.81 553.98 347 553.54 347.44C553.23 347.74 553.06 348.17 552.8 348.5C552.44 348.96 551.94 349.08 551.54 349.44C551.16 349.77 550.91 350.31 550.6 350.7C550.25 351.15 549.67 351.21 549.31 351.61C549.06 351.88 548.91 352.29 548.69 352.59C548.27 353.17 547.62 353.37 547.14 353.84C546.76 354.2 546.57 354.72 546.2 355.1C545.79 355.52 545.24 355.73 544.84 356.14C544.58 356.4 544.43 356.81 544.2 357.1C543.95 357.42 543.6 357.56 543.3 357.8C542.62 358.34 542.29 359.18 541.59 359.69C541.23 359.96 540.74 360.19 540.44 360.54C540.25 360.75 540.18 361.07 540 361.3C539.57 361.84 538.88 362.04 538.44 362.54C538.08 362.94 537.96 363.44 537.5 363.8C537.17 364.06 536.74 364.23 536.44 364.54C536 364.98 535.81 365.59 535.3 366C535.03 366.21 534.68 366.3 534.44 366.54C533.93 367.04 533.68 367.74 533.1 368.2C532.87 368.38 532.55 368.45 532.34 368.64C531.84 369.07 531.62 369.78 531.1 370.2C530.77 370.46 530.34 370.63 530.04 370.94C529.6 371.38 529.41 371.99 528.9 372.4C528.57 372.66 528.14 372.83 527.84 373.14C527.47 373.51 527.33 374.06 526.9 374.4C526.51 374.71 525.8 375 525.51 375.41C525.2 375.83 525.16 376.24 524.7 376.6C524.34 376.89 523.81 377.07 523.51 377.41C523.11 377.85 523 378.4 522.5 378.8C522.17 379.06 521.74 379.23 521.44 379.54C521 379.98 520.81 380.59 520.3 381C520.03 381.21 519.68 381.3 519.44 381.54C519 381.98 518.81 382.59 518.3 383C518 383.24 517.57 383.32 517.31 383.61C517.02 383.91 516.86 384.37 516.6 384.7C516.29 385.09 515.88 385.3 515.5 385.6C514.74 386.2 514.34 386.93 513.5 387.6C512.96 388.03 512.67 388.62 512.2 389.1C511.7 389.61 511.06 389.93 510.6 390.5C510.3 390.88 510.09 391.29 509.7 391.6C509.31 391.91 508.77 392.16 508.44 392.54C508.08 392.94 507.96 393.44 507.5 393.8C507.17 394.06 506.71 394.22 506.44 394.54C506.25 394.75 506.18 395.07 506 395.3C505.59 395.81 504.98 396 504.54 396.44C504.23 396.74 504.06 397.17 503.8 397.5C503.41 397.99 502.85 398.13 502.44 398.54C502.01 398.97 501.79 399.61 501.3 400C501 400.24 500.57 400.32 500.31 400.61C499.85 401.1 499.66 401.76 499.1 402.2C498.84 402.41 498.45 402.48 498.21 402.71C497.72 403.14 497.51 403.84 497 404.3C496.65 404.62 496.17 404.8 495.84 405.14C495.61 405.37 495.48 405.73 495.29 405.99C495.02 406.36 494.64 406.53 494.3 406.8C493.69 407.29 493.37 407.99 492.8 408.5C492.39 408.87 491.81 409.12 491.44 409.54C491.18 409.83 491.09 410.21 490.8 410.5C490.42 410.88 489.9 411.07 489.54 411.44C489.32 411.65 489.27 411.95 489.09 412.19C488.67 412.79 488.04 412.99 487.54 413.44C487.08 413.84 486.87 414.48 486.4 414.9C486.1 415.17 485.69 415.25 485.41 415.51C485.07 415.81 484.89 416.34 484.6 416.7C484.24 417.16 483.83 417.2 483.41 417.51C483 417.8 482.71 418.51 482.4 418.9C482.06 419.33 481.51 419.47 481.14 419.84C480.83 420.14 480.66 420.57 480.4 420.9C479.99 421.41 479.38 421.6 478.94 422.04C478.63 422.34 478.46 422.77 478.2 423.1C477.76 423.65 476.97 423.9 476.54 424.44C476.23 424.82 476.14 425.25 475.7 425.6C475.31 425.91 474.77 426.16 474.44 426.54C474.08 426.94 473.96 427.44 473.5 427.8C473.17 428.06 472.74 428.23 472.44 428.54C472.18 428.8 472.03 429.21 471.8 429.5C471.44 429.96 470.94 430.08 470.54 430.44C470.22 430.71 470.06 431.17 469.8 431.5C469.4 432 468.85 432.11 468.41 432.51C468.07 432.81 467.89 433.34 467.6 433.7C467.29 434.09 466.88 434.3 466.5 434.6C466.04 434.97 465.76 435.45 465.4 435.9C465.15 436.22 464.8 436.36 464.5 436.6C464 437 463.71 437.54 463.3 438C462.79 438.57 462.09 438.89 461.6 439.5C461.27 439.91 461.04 440.37 460.59 440.69C460.29 440.91 459.88 441.06 459.61 441.31C459.26 441.63 459.14 442.15 458.8 442.5C458.4 442.91 457.81 443.12 457.44 443.54C457.28 443.72 457.23 444 457.09 444.19C456.66 444.81 455.94 445.03 455.44 445.54C455.18 445.8 455.03 446.21 454.8 446.5C454.44 446.96 453.94 447.08 453.54 447.44C453.16 447.77 452.91 448.31 452.6 448.7C452.25 449.14 451.82 449.23 451.44 449.54C451.14 449.78 450.92 450.28 450.69 450.59C450.34 451.07 449.82 451.32 449.4 451.7C448.83 452.22 448.5 452.92 447.9 453.4C447.61 453.63 447.2 453.78 446.94 454.04C446.63 454.34 446.46 454.77 446.2 455.1C445.95 455.42 445.6 455.56 445.3 455.8C444.8 456.2 444.51 456.74 444.1 457.2C443.62 457.74 442.9 458.01 442.44 458.54C442.08 458.94 441.96 459.44 441.5 459.8C441.17 460.06 440.71 460.22 440.44 460.54C440.02 461.01 439.83 461.58 439.3 462C439.07 462.18 438.75 462.25 438.54 462.44C438.04 462.88 437.84 463.57 437.3 464C437.07 464.18 436.75 464.25 436.54 464.44C435.97 464.94 435.71 465.72 435.1 466.2C434.87 466.38 434.55 466.45 434.34 466.64C433.96 466.97 433.71 467.51 433.4 467.9C433.06 468.33 432.51 468.47 432.14 468.84C431.83 469.14 431.66 469.57 431.4 469.9C430.97 470.45 430.31 470.66 429.84 471.14C429.43 471.55 429.29 472.13 428.79 472.49C428.41 472.77 427.84 473.07 427.54 473.44C427.23 473.82 427.14 474.25 426.7 474.6C426.31 474.91 425.77 475.16 425.44 475.54C425.07 475.96 424.99 476.44 424.47 476.77C423.62 477.3 422.07 477 421.1 477C418.63 477 416.17 477 413.7 477C412.75 477 411.4 477.24 410.54 476.76C409.98 476.45 409.82 475.61 409.3 475.2C408.97 474.94 408.51 474.78 408.21 474.49C407.92 474.23 407.84 473.8 407.6 473.5C407.19 472.99 406.58 472.8 406.14 472.36C405.83 472.06 405.66 471.63 405.4 471.3C404.77 470.5 403.71 470.39 403.44 469.26C403.14 468 403.4 465.13 403.4 463.7C403.4 459.83 403.4 455.97 403.4 452.1C403.4 430.5 403.4 408.9 403.4 387.3C403.4 381.77 403.4 376.23 403.4 370.7C403.4 369.1 403.85 365.62 402.9 364.4C402.19 364.06 401.29 364.2 400.5 364.2C398.9 364.2 397.3 364.2 395.7 364.2C389.97 364.2 384.23 364.2 378.5 364.2C358.1 364.2 337.7 364.2 317.3 364.2C244.83 364.2 172.37 364.2 99.9 364.2C76.1 364.2 52.3 364.2 28.5 364.2C24.83 364.2 21.17 364.2 17.5 364.2C15.91 364.2 13.83 364.55 12.34 363.96C11.64 363.69 11.49 362.77 10.99 362.31C10.69 362.02 10.23 361.86 9.9 361.6C9.45 361.24 9.36 360.71 9 360.3C8.7 359.97 8.24 359.87 7.9 359.6C7.46 359.25 7.34 358.73 7 358.3C6.65 357.86 6.13 357.74 5.7 357.4C5.22 357.02 5.14 356.39 4.7 356C4.17 355.53 3.61 355.32 3.37 354.6Z" fill="#ffffff" fill-rule="evenodd" stroke="#ffffff" stroke-width="0.25" stroke-linejoin="round"/>
</svg>